<mxfile host="app.diagrams.net" modified="2023-08-29T12:19:56.650Z" agent="Mozilla/5.0 (Windows NT 10.0; Win64; x64) AppleWebKit/537.36 (KHTML, like Gecko) Chrome/116.0.0.0 Safari/537.36" etag="uy-t2nb5F1v8elr6a78I" version="21.6.1" type="device">
  <diagram name="Pagina-1" id="lcHrGxXBL3W1wGfV-fO7">
    <mxGraphModel dx="1947" dy="478" grid="1" gridSize="10" guides="1" tooltips="1" connect="1" arrows="1" fold="1" page="1" pageScale="1" pageWidth="827" pageHeight="1169" math="0" shadow="0">
      <root>
        <mxCell id="0" />
        <mxCell id="1" parent="0" />
        <mxCell id="sTtSb0fzbkR7x_QfdFsz-1" value="start" style="rounded=1;whiteSpace=wrap;html=1;" vertex="1" parent="1">
          <mxGeometry x="300" y="50" width="120" height="60" as="geometry" />
        </mxCell>
        <mxCell id="sTtSb0fzbkR7x_QfdFsz-2" value="blauwe dobbelsteen wordt gerold = rand int 1-6" style="rounded=0;whiteSpace=wrap;html=1;" vertex="1" parent="1">
          <mxGeometry x="300" y="140" width="120" height="60" as="geometry" />
        </mxCell>
        <mxCell id="sTtSb0fzbkR7x_QfdFsz-3" value="rode dobbelsteen wordt gerold = rand int 1-6" style="rounded=0;whiteSpace=wrap;html=1;" vertex="1" parent="1">
          <mxGeometry x="140" y="140" width="120" height="60" as="geometry" />
        </mxCell>
        <mxCell id="sTtSb0fzbkR7x_QfdFsz-4" value="witte dobbelsteen wordt gerold = random getal uit getallenlijst" style="rounded=0;whiteSpace=wrap;html=1;" vertex="1" parent="1">
          <mxGeometry x="460" y="140" width="120" height="60" as="geometry" />
        </mxCell>
        <mxCell id="sTtSb0fzbkR7x_QfdFsz-5" value="kies je getal op basis van wat je gerold hebt met je dobbelstenen" style="rhombus;whiteSpace=wrap;html=1;" vertex="1" parent="1">
          <mxGeometry x="280" y="390" width="140" height="110" as="geometry" />
        </mxCell>
        <mxCell id="sTtSb0fzbkR7x_QfdFsz-6" value="" style="endArrow=classic;html=1;rounded=0;exitX=0.5;exitY=1;exitDx=0;exitDy=0;entryX=1;entryY=0;entryDx=0;entryDy=0;" edge="1" parent="1" source="sTtSb0fzbkR7x_QfdFsz-4" target="sTtSb0fzbkR7x_QfdFsz-5">
          <mxGeometry width="50" height="50" relative="1" as="geometry">
            <mxPoint x="500" y="280" as="sourcePoint" />
            <mxPoint x="550" y="230" as="targetPoint" />
          </mxGeometry>
        </mxCell>
        <mxCell id="sTtSb0fzbkR7x_QfdFsz-7" value="" style="endArrow=classic;html=1;rounded=0;exitX=0.5;exitY=1;exitDx=0;exitDy=0;entryX=0.238;entryY=0.175;entryDx=0;entryDy=0;entryPerimeter=0;" edge="1" parent="1" source="sTtSb0fzbkR7x_QfdFsz-3" target="sTtSb0fzbkR7x_QfdFsz-5">
          <mxGeometry width="50" height="50" relative="1" as="geometry">
            <mxPoint x="170" y="220" as="sourcePoint" />
            <mxPoint x="280" y="250" as="targetPoint" />
          </mxGeometry>
        </mxCell>
        <mxCell id="sTtSb0fzbkR7x_QfdFsz-8" value="" style="endArrow=classic;html=1;rounded=0;exitX=0.5;exitY=1;exitDx=0;exitDy=0;entryX=0.5;entryY=0;entryDx=0;entryDy=0;" edge="1" parent="1" source="sTtSb0fzbkR7x_QfdFsz-2" target="sTtSb0fzbkR7x_QfdFsz-5">
          <mxGeometry width="50" height="50" relative="1" as="geometry">
            <mxPoint x="480" y="320" as="sourcePoint" />
            <mxPoint x="530" y="270" as="targetPoint" />
          </mxGeometry>
        </mxCell>
        <mxCell id="sTtSb0fzbkR7x_QfdFsz-14" value="de rode en blauwe even hoog gegooid zijn" style="rounded=0;whiteSpace=wrap;html=1;" vertex="1" parent="1">
          <mxGeometry x="80" y="300" width="120" height="60" as="geometry" />
        </mxCell>
        <mxCell id="sTtSb0fzbkR7x_QfdFsz-15" value="kies je getal op basis van wat je gerold hebt met je dobbelstenen" style="rhombus;whiteSpace=wrap;html=1;" vertex="1" parent="1">
          <mxGeometry x="15" y="400" width="150" height="110" as="geometry" />
        </mxCell>
        <mxCell id="sTtSb0fzbkR7x_QfdFsz-16" value="" style="endArrow=classic;html=1;rounded=0;entryX=0.5;entryY=0;entryDx=0;entryDy=0;" edge="1" parent="1" target="sTtSb0fzbkR7x_QfdFsz-14">
          <mxGeometry width="50" height="50" relative="1" as="geometry">
            <mxPoint x="200" y="200" as="sourcePoint" />
            <mxPoint x="80" y="230" as="targetPoint" />
          </mxGeometry>
        </mxCell>
        <mxCell id="sTtSb0fzbkR7x_QfdFsz-17" value="als" style="text;html=1;strokeColor=none;fillColor=none;align=center;verticalAlign=middle;whiteSpace=wrap;rounded=0;" vertex="1" parent="1">
          <mxGeometry x="130" y="230" width="60" height="30" as="geometry" />
        </mxCell>
        <mxCell id="sTtSb0fzbkR7x_QfdFsz-18" value="" style="endArrow=classic;html=1;rounded=0;exitX=0.5;exitY=1;exitDx=0;exitDy=0;entryX=0.5;entryY=0;entryDx=0;entryDy=0;" edge="1" parent="1" source="sTtSb0fzbkR7x_QfdFsz-2" target="sTtSb0fzbkR7x_QfdFsz-14">
          <mxGeometry width="50" height="50" relative="1" as="geometry">
            <mxPoint x="280" y="280" as="sourcePoint" />
            <mxPoint x="330" y="230" as="targetPoint" />
          </mxGeometry>
        </mxCell>
        <mxCell id="sTtSb0fzbkR7x_QfdFsz-19" value="" style="endArrow=classic;html=1;rounded=0;exitX=0.5;exitY=1;exitDx=0;exitDy=0;entryX=0.575;entryY=-0.083;entryDx=0;entryDy=0;entryPerimeter=0;" edge="1" parent="1" source="sTtSb0fzbkR7x_QfdFsz-4" target="sTtSb0fzbkR7x_QfdFsz-14">
          <mxGeometry width="50" height="50" relative="1" as="geometry">
            <mxPoint x="430" y="250" as="sourcePoint" />
            <mxPoint x="560" y="270" as="targetPoint" />
          </mxGeometry>
        </mxCell>
        <mxCell id="sTtSb0fzbkR7x_QfdFsz-22" value="als" style="text;html=1;strokeColor=none;fillColor=none;align=center;verticalAlign=middle;whiteSpace=wrap;rounded=0;" vertex="1" parent="1">
          <mxGeometry x="230" y="210" width="60" height="30" as="geometry" />
        </mxCell>
        <mxCell id="sTtSb0fzbkR7x_QfdFsz-23" value="als" style="text;html=1;strokeColor=none;fillColor=none;align=center;verticalAlign=middle;whiteSpace=wrap;rounded=0;" vertex="1" parent="1">
          <mxGeometry x="390" y="230" width="60" height="30" as="geometry" />
        </mxCell>
        <mxCell id="sTtSb0fzbkR7x_QfdFsz-24" value="" style="endArrow=classic;html=1;rounded=0;exitX=0.5;exitY=1;exitDx=0;exitDy=0;entryX=0.5;entryY=0;entryDx=0;entryDy=0;" edge="1" parent="1" source="sTtSb0fzbkR7x_QfdFsz-14" target="sTtSb0fzbkR7x_QfdFsz-15">
          <mxGeometry width="50" height="50" relative="1" as="geometry">
            <mxPoint y="410" as="sourcePoint" />
            <mxPoint x="50" y="360" as="targetPoint" />
          </mxGeometry>
        </mxCell>
        <mxCell id="sTtSb0fzbkR7x_QfdFsz-25" value="kies in welke rij je het gekozen getal invult" style="rhombus;whiteSpace=wrap;html=1;" vertex="1" parent="1">
          <mxGeometry x="30" y="550" width="120" height="110" as="geometry" />
        </mxCell>
        <mxCell id="sTtSb0fzbkR7x_QfdFsz-26" value="" style="endArrow=classic;html=1;rounded=0;exitX=0.5;exitY=1;exitDx=0;exitDy=0;entryX=0.5;entryY=0;entryDx=0;entryDy=0;" edge="1" parent="1" source="sTtSb0fzbkR7x_QfdFsz-15" target="sTtSb0fzbkR7x_QfdFsz-25">
          <mxGeometry width="50" height="50" relative="1" as="geometry">
            <mxPoint x="180" y="560" as="sourcePoint" />
            <mxPoint x="230" y="510" as="targetPoint" />
          </mxGeometry>
        </mxCell>
        <mxCell id="sTtSb0fzbkR7x_QfdFsz-29" value="rode dobbelsteen is hoger = getal vul je in rode rij in" style="rounded=0;whiteSpace=wrap;html=1;" vertex="1" parent="1">
          <mxGeometry x="240" y="585" width="120" height="60" as="geometry" />
        </mxCell>
        <mxCell id="sTtSb0fzbkR7x_QfdFsz-30" value="blauwe dobbelsteen is hoger = getal vul je in blauwe rij in" style="rounded=0;whiteSpace=wrap;html=1;" vertex="1" parent="1">
          <mxGeometry x="400" y="585" width="120" height="60" as="geometry" />
        </mxCell>
        <mxCell id="sTtSb0fzbkR7x_QfdFsz-31" value="" style="endArrow=classic;html=1;rounded=0;exitX=0;exitY=1;exitDx=0;exitDy=0;entryX=0.5;entryY=0;entryDx=0;entryDy=0;" edge="1" parent="1" source="sTtSb0fzbkR7x_QfdFsz-5" target="sTtSb0fzbkR7x_QfdFsz-29">
          <mxGeometry width="50" height="50" relative="1" as="geometry">
            <mxPoint x="230" y="520" as="sourcePoint" />
            <mxPoint x="280" y="470" as="targetPoint" />
          </mxGeometry>
        </mxCell>
        <mxCell id="sTtSb0fzbkR7x_QfdFsz-32" value="" style="endArrow=classic;html=1;rounded=0;exitX=1;exitY=1;exitDx=0;exitDy=0;entryX=0.558;entryY=0;entryDx=0;entryDy=0;entryPerimeter=0;" edge="1" parent="1" source="sTtSb0fzbkR7x_QfdFsz-5" target="sTtSb0fzbkR7x_QfdFsz-30">
          <mxGeometry width="50" height="50" relative="1" as="geometry">
            <mxPoint x="460" y="510" as="sourcePoint" />
            <mxPoint x="510" y="460" as="targetPoint" />
          </mxGeometry>
        </mxCell>
        <mxCell id="sTtSb0fzbkR7x_QfdFsz-34" value="controleer waarde van ingevulde getal" style="rounded=0;whiteSpace=wrap;html=1;" vertex="1" parent="1">
          <mxGeometry x="240" y="680" width="120" height="60" as="geometry" />
        </mxCell>
        <mxCell id="sTtSb0fzbkR7x_QfdFsz-35" value="controleer waarde van ingevulde getal" style="rounded=0;whiteSpace=wrap;html=1;" vertex="1" parent="1">
          <mxGeometry x="400" y="680" width="120" height="60" as="geometry" />
        </mxCell>
        <mxCell id="sTtSb0fzbkR7x_QfdFsz-37" value="" style="endArrow=classic;html=1;rounded=0;exitX=0.5;exitY=1;exitDx=0;exitDy=0;" edge="1" parent="1" source="sTtSb0fzbkR7x_QfdFsz-30">
          <mxGeometry width="50" height="50" relative="1" as="geometry">
            <mxPoint x="450" y="655" as="sourcePoint" />
            <mxPoint x="460" y="675" as="targetPoint" />
            <Array as="points">
              <mxPoint x="455" y="680" />
            </Array>
          </mxGeometry>
        </mxCell>
        <mxCell id="sTtSb0fzbkR7x_QfdFsz-39" value="" style="endArrow=classic;html=1;rounded=0;entryX=0.5;entryY=0;entryDx=0;entryDy=0;" edge="1" parent="1" target="sTtSb0fzbkR7x_QfdFsz-34">
          <mxGeometry width="50" height="50" relative="1" as="geometry">
            <mxPoint x="299" y="645" as="sourcePoint" />
            <mxPoint x="300" y="675" as="targetPoint" />
          </mxGeometry>
        </mxCell>
        <mxCell id="sTtSb0fzbkR7x_QfdFsz-40" value="controleer waarde van ingevulde getal" style="rounded=0;whiteSpace=wrap;html=1;" vertex="1" parent="1">
          <mxGeometry x="40" y="690" width="120" height="60" as="geometry" />
        </mxCell>
        <mxCell id="sTtSb0fzbkR7x_QfdFsz-44" value="als waarde niet goed is" style="text;html=1;strokeColor=none;fillColor=none;align=center;verticalAlign=middle;whiteSpace=wrap;rounded=0;" vertex="1" parent="1">
          <mxGeometry x="-50" y="650" width="60" height="30" as="geometry" />
        </mxCell>
        <mxCell id="sTtSb0fzbkR7x_QfdFsz-45" value="" style="curved=1;endArrow=classic;html=1;rounded=0;entryX=1;entryY=0.5;entryDx=0;entryDy=0;" edge="1" parent="1" target="sTtSb0fzbkR7x_QfdFsz-30">
          <mxGeometry width="50" height="50" relative="1" as="geometry">
            <mxPoint x="520" y="705" as="sourcePoint" />
            <mxPoint x="620" y="645" as="targetPoint" />
            <Array as="points">
              <mxPoint x="570" y="705" />
              <mxPoint x="590" y="665" />
              <mxPoint x="590" y="625" />
            </Array>
          </mxGeometry>
        </mxCell>
        <mxCell id="sTtSb0fzbkR7x_QfdFsz-47" value="als waarde niet goed is" style="text;html=1;strokeColor=none;fillColor=none;align=center;verticalAlign=middle;whiteSpace=wrap;rounded=0;" vertex="1" parent="1">
          <mxGeometry x="590" y="645" width="60" height="30" as="geometry" />
        </mxCell>
        <mxCell id="sTtSb0fzbkR7x_QfdFsz-49" value="" style="curved=1;endArrow=classic;html=1;rounded=0;entryX=0;entryY=0.5;entryDx=0;entryDy=0;" edge="1" parent="1" target="sTtSb0fzbkR7x_QfdFsz-29">
          <mxGeometry width="50" height="50" relative="1" as="geometry">
            <mxPoint x="240" y="710" as="sourcePoint" />
            <mxPoint x="190" y="665" as="targetPoint" />
            <Array as="points">
              <mxPoint x="200" y="670" />
            </Array>
          </mxGeometry>
        </mxCell>
        <mxCell id="sTtSb0fzbkR7x_QfdFsz-50" value="als waarde niet goed is" style="text;html=1;strokeColor=none;fillColor=none;align=center;verticalAlign=middle;whiteSpace=wrap;rounded=0;" vertex="1" parent="1">
          <mxGeometry x="155" y="645" width="60" height="30" as="geometry" />
        </mxCell>
        <mxCell id="sTtSb0fzbkR7x_QfdFsz-54" value="" style="curved=1;endArrow=classic;html=1;rounded=0;exitX=-0.008;exitY=0.617;exitDx=0;exitDy=0;exitPerimeter=0;" edge="1" parent="1" source="sTtSb0fzbkR7x_QfdFsz-40">
          <mxGeometry width="50" height="50" relative="1" as="geometry">
            <mxPoint x="-20" y="660" as="sourcePoint" />
            <mxPoint x="30" y="610" as="targetPoint" />
            <Array as="points">
              <mxPoint x="-20" y="610" />
            </Array>
          </mxGeometry>
        </mxCell>
        <mxCell id="sTtSb0fzbkR7x_QfdFsz-55" value="einde ronde" style="rounded=0;whiteSpace=wrap;html=1;" vertex="1" parent="1">
          <mxGeometry x="240" y="820" width="120" height="60" as="geometry" />
        </mxCell>
        <mxCell id="sTtSb0fzbkR7x_QfdFsz-56" value="" style="endArrow=classic;html=1;rounded=0;exitX=0.5;exitY=1;exitDx=0;exitDy=0;entryX=0.433;entryY=-0.017;entryDx=0;entryDy=0;entryPerimeter=0;" edge="1" parent="1" source="sTtSb0fzbkR7x_QfdFsz-35" target="sTtSb0fzbkR7x_QfdFsz-55">
          <mxGeometry width="50" height="50" relative="1" as="geometry">
            <mxPoint x="390" y="820" as="sourcePoint" />
            <mxPoint x="440" y="770" as="targetPoint" />
          </mxGeometry>
        </mxCell>
        <mxCell id="sTtSb0fzbkR7x_QfdFsz-57" value="" style="endArrow=classic;html=1;rounded=0;entryX=0.5;entryY=0;entryDx=0;entryDy=0;" edge="1" parent="1" source="sTtSb0fzbkR7x_QfdFsz-34" target="sTtSb0fzbkR7x_QfdFsz-55">
          <mxGeometry width="50" height="50" relative="1" as="geometry">
            <mxPoint x="289" y="760" as="sourcePoint" />
            <mxPoint x="290" y="810" as="targetPoint" />
          </mxGeometry>
        </mxCell>
        <mxCell id="sTtSb0fzbkR7x_QfdFsz-58" value="" style="endArrow=classic;html=1;rounded=0;entryX=0;entryY=0.5;entryDx=0;entryDy=0;" edge="1" parent="1" source="sTtSb0fzbkR7x_QfdFsz-40" target="sTtSb0fzbkR7x_QfdFsz-55">
          <mxGeometry width="50" height="50" relative="1" as="geometry">
            <mxPoint x="70" y="810" as="sourcePoint" />
            <mxPoint x="70" y="850" as="targetPoint" />
          </mxGeometry>
        </mxCell>
      </root>
    </mxGraphModel>
  </diagram>
</mxfile>
